<svg width="306" height="168" xmlns="http://www.w3.org/2000/svg" xmlns:xlink="http://www.w3.org/1999/xlink" overflow="hidden"><defs><clipPath id="clip0"><rect x="0" y="0" width="306" height="168"/></clipPath><clipPath id="clip1"><rect x="18" y="23" width="269" height="116"/></clipPath><clipPath id="clip2"><rect x="18" y="23" width="269" height="116"/></clipPath></defs><g clip-path="url(#clip0)"><path d="M179.265 9.17881 484.113 9.17881 484.113 176.762 179.265 176.762Z" fill="#FFFFFF" transform="matrix(1.00241 0 0 1 -179.557 -9.03973)"/><path d="M197.414 134.697 464.434 134.697M197.414 121.901 464.434 121.901M197.414 109.245 464.434 109.245M197.414 96.4502 464.434 96.4502M197.414 83.7942 464.434 83.7942M197.414 70.9991 464.434 70.9991M197.414 58.343 464.434 58.343M197.414 45.5479 464.434 45.5479M197.414 32.8907 464.434 32.8907" stroke="#D9D9D9" stroke-width="0.478063" stroke-linejoin="round" stroke-miterlimit="10" fill="none" transform="matrix(1.00241 0 0 1 -179.557 -9.03973)"/><path d="M197.414 147.348 464.434 147.348" stroke="#D9D9D9" stroke-width="0.478063" stroke-linejoin="round" stroke-miterlimit="10" fill="none" fill-rule="evenodd" transform="matrix(1.00241 0 0 1 -179.557 -9.03973)"/><g clip-path="url(#clip1)"><path d="M230.861 92.6256 297.626 106.113 364.383 98.3277 431.126 46.1722" stroke="#ED7D31" stroke-width="1.43419" stroke-linecap="round" stroke-linejoin="round" stroke-miterlimit="10" fill="none" transform="matrix(1.00241 0 0 1 -179.557 -9.03973)"/></g><g clip-path="url(#clip2)"><path d="M230.861 103.195 297.626 46.0331 364.383 107.781 431.126 75.1018" stroke="#4472C4" stroke-width="1.43419" stroke-linecap="round" stroke-linejoin="round" stroke-miterlimit="10" fill="none" transform="matrix(1.00241 0 0 1 -179.557 -9.03973)"/></g><text fill="#404040" font-family="Calibri,Calibri_MSFontService,sans-serif" font-weight="700" font-size="41" transform="matrix(0.139408 0 0 0.139073 52.1566 81)">351<tspan font-size="41" x="63" y="0">,</tspan><tspan font-size="41" x="74" y="0">5</tspan><tspan font-size="41" x="420.46" y="93.4762">346</tspan>,<tspan font-size="41" x="494.46" y="93.4762">21</tspan><tspan font-size="41" x="868.42" y="28.7619">349</tspan><tspan font-size="41" x="931.42" y="28.7619">,</tspan><tspan font-size="41" x="942.42" y="28.7619">26</tspan><tspan font-size="41" x="1320.97" y="-337.952">369</tspan>,76<tspan font-size="41" x="36.67" y="115.048">24</tspan><tspan font-size="41" x="78.67" y="115.048">,</tspan><tspan font-size="41" x="89.67" y="115.048">35</tspan><tspan font-size="41" x="438.8" y="-251.667">26</tspan>,<tspan font-size="41" x="491.8" y="-251.667">1</tspan><tspan font-size="41" x="909.67" y="186.952">24</tspan><tspan font-size="41" x="951.67" y="186.952">,</tspan><tspan font-size="41" x="962.67" y="186.952">21</tspan><tspan font-size="41" x="1444.72" y="-64.7143">25</tspan>,21<tspan fill="#595959" font-weight="400" font-size="41" x="1716.13" y="424.238">23</tspan><tspan fill="#595959" font-weight="400" font-size="41" x="1716.13" y="309.19">23</tspan><tspan fill="#595959" font-weight="400" font-size="41" x="1758.13" y="309.19">,</tspan><tspan fill="#595959" font-weight="400" font-size="41" x="1768.13" y="309.19">5</tspan><tspan fill="#595959" font-weight="400" font-size="41" x="1716.13" y="186.952">24</tspan><tspan fill="#595959" font-weight="400" font-size="41" x="1716.13" y="71.9048">24</tspan><tspan fill="#595959" font-weight="400" font-size="41" x="1758.13" y="71.9048">,</tspan><tspan fill="#595959" font-weight="400" font-size="41" x="1768.13" y="71.9048">5</tspan><tspan fill="#595959" font-weight="400" font-size="41" x="1716.13" y="-43.1429">25</tspan><tspan fill="#595959" font-weight="400" font-size="41" x="1716.13" y="-165.381">25</tspan><tspan fill="#595959" font-weight="400" font-size="41" x="1758.13" y="-165.381">,</tspan><tspan fill="#595959" font-weight="400" font-size="41" x="1768.13" y="-165.381">5</tspan><tspan fill="#595959" font-weight="400" font-size="41" x="1716.13" y="-280.429">26</tspan><tspan fill="#595959" font-weight="400" font-size="41" x="1716.13" y="-402.667">26</tspan><tspan fill="#595959" font-weight="400" font-size="41" x="1758.13" y="-402.667">,</tspan><tspan fill="#595959" font-weight="400" font-size="41" x="1768.13" y="-402.667">5</tspan><tspan fill="#595959" font-weight="400" font-size="41" x="-343.28" y="424.238">330</tspan><tspan fill="#595959" font-weight="400" font-size="41" x="-343.28" y="330.762">335</tspan><tspan fill="#595959" font-weight="400" font-size="41" x="-343.28" y="237.286">340</tspan><tspan fill="#595959" font-weight="400" font-size="41" x="-343.28" y="151">345</tspan><tspan fill="#595959" font-weight="400" font-size="41" x="-343.28" y="57.5238">350</tspan><tspan fill="#595959" font-weight="400" font-size="41" x="-343.28" y="-35.9524">355</tspan><tspan fill="#595959" font-weight="400" font-size="41" x="-343.28" y="-122.238">360</tspan><tspan fill="#595959" font-weight="400" font-size="41" x="-343.28" y="-215.714">365</tspan><tspan fill="#595959" font-weight="400" font-size="41" x="-343.28" y="-309.19">370</tspan><tspan fill="#595959" font-weight="400" font-size="41" x="-343.28" y="-402.667">375</tspan><tspan fill="#595959" font-weight="400" font-size="41" x="-12.74" y="474.571">1</tspan><tspan fill="#595959" font-weight="400" font-size="41" x="467.31" y="474.571">2</tspan><tspan fill="#595959" font-weight="400" font-size="41" x="947.35" y="474.571">3</tspan><tspan fill="#595959" font-weight="400" font-size="41" x="1427.39" y="474.571">4</tspan><tspan fill="#000000" font-weight="400" font-size="64" x="213.6" y="-488.952">Relação temperatura</tspan><tspan fill="#000000" font-style="italic" font-weight="400" font-size="64" x="772.72" y="-488.952">versus</tspan><tspan fill="#000000" font-weight="400" font-size="64" x="951.42" y="-488.952">velocidade</tspan></text><path d="M257.841 167.583 270.079 167.583" stroke="#ED7D31" stroke-width="1.43419" stroke-linecap="round" stroke-linejoin="round" stroke-miterlimit="10" fill="none" fill-rule="evenodd" transform="matrix(1.00241 0 0 1 -179.557 -9.03973)"/><text font-family="Calibri,Calibri_MSFontService,sans-serif" font-weight="400" font-size="41" transform="matrix(0.139408 0 0 0.139073 92.4956 160)">Velocidade média (<tspan font-size="41" x="316" y="0">m</tspan><tspan font-size="41" x="349" y="0">/</tspan><tspan font-size="41" x="365" y="0">s</tspan><tspan font-size="41" x="381" y="0">)</tspan></text><path d="M338.086 167.583 350.325 167.583" stroke="#4472C4" stroke-width="1.43419" stroke-linecap="round" stroke-linejoin="round" stroke-miterlimit="10" fill="none" fill-rule="evenodd" transform="matrix(1.00241 0 0 1 -179.557 -9.03973)"/><text font-family="Calibri,Calibri_MSFontService,sans-serif" font-weight="400" font-size="41" transform="matrix(0.139408 0 0 0.139073 172.924 160)">Temperatura média <tspan font-size="41" x="335" y="0">(</tspan><tspan font-size="41" x="347" y="0">°C</tspan><tspan font-size="41" x="383" y="0">)</tspan></text><path d="M179.334 9.24832 484.182 9.24832 484.182 176.831 179.334 176.831Z" stroke="#D9D9D9" stroke-width="0.478063" stroke-linejoin="round" stroke-miterlimit="10" fill="none" transform="matrix(1.00241 0 0 1 -179.557 -9.03973)"/></g></svg>